<?xml version="1.0" encoding="UTF-8"?><svg id="Layer_1" xmlns="http://www.w3.org/2000/svg" viewBox="0 0 110 135.000000000000909"><path d="M83.575299263000488,42.516000747680664h-8.882797241210938v-2.203100204467773c0-10.854999542236328-8.832000732421875-19.687999725341797-19.687999725341797-19.687999725341797-10.854999542236328,0-19.687999725341797,8.831999778747559-19.687999725341797,19.687999725341797v2.203100204467773h-8.882801055908203c-5.257801055908203,0-9.535200119018555,4.277299880981445-9.535200119018555,9.539098739624023v34.530998229981378c0,15.323997497558594,12.468999862670898,27.78900146484375,27.788999557495117,27.78900146484375h20.625c15.324001312255859,0,27.788997650146484-12.469001770019531,27.788997650146484-27.78900146484375v-34.530998229981378c0-5.257801055908203-4.277297973632812-9.539100646972656-9.535202026367188-9.539100646972656l.009002685546875.000001907348633ZM41.571297645568848,40.312900543212891c0-7.410200119018555,6.027301788330078-13.437999725341797,13.437999725341797-13.437999725341797s13.437999725341797,6.027299880981445,13.437999725341797,13.437999725341797v2.203100204467773h-26.870998382568359v-2.203100204467773h-.005001068115234ZM86.860295295715332,86.582901000977472c0,11.878997802734375-9.664100646972656,21.53900146484375-21.53900146484375,21.53900146484375h-20.625c-11.878999710083008,0-21.538999557495117-9.664100646972656-21.538999557495117-21.53900146484375v-34.530998229981378c0-1.8125,1.472700119018555-3.289100646972656,3.285200119018555-3.289100646972656h8.882801055908203v11.362998962402344c0,1.726600646972656,1.398399353027344,3.125,3.125,3.125s3.125-1.398399353027344,3.125-3.125v-11.362998962402344h26.870998382568359v11.362998962402344c0,1.726600646972656,1.398399353027344,3.125,3.125,3.125s3.125-1.398399353027344,3.125-3.125v-11.362998962402344h8.882797241210938c1.8125,0,3.285202026367188,1.476600646972656,3.285202026367188,3.289100646972656v34.530998229981378h-.003997802734375Z" style="fill:#000; stroke-width:0px;"/></svg>