<svg xmlns="http://www.w3.org/2000/svg" viewBox="0 0 110 105.78137498158776"><path d="M54.549481257718071,92.882168826555244c-16.647998809814453,0-32.229999542236328-10.487998962402344-37.887001037597656-27.101997375488281l-1.171899795532227-3.441398620605469,6.88279914855957-2.347702026367188,1.171899795532227,3.441398620605469c2.816400527954102,8.277297973632812,8.6875,14.957000732421875,16.527002334594727,18.811996459960938,7.847702026367188,3.859397888183594,16.715000152587891,4.433601379394531,24.987998962402344,1.613296508789062,17.073997497558594-5.8125,26.237998962402344-24.441001892089844,20.426002502441406-41.515998840332031-5.816398620605469-17.077999114990234-24.441001892089844-26.233999252319336-41.515998840332031-20.426000595092773l-3.441398620605469,1.171899795532227-2.343799591064453-6.882800102233887,3.441398620605469-1.171899795532227c20.875-7.105500221252441,43.640995025634766,4.097699165344238,50.745998382568359,24.965001106262207,7.105499267578125,20.870998382568359-4.089797973632812,43.641002655029297-24.965000152587891,50.745998382568359-4.257801055908203,1.449203491210938-8.593799591064453,2.136703491210938-12.854999542236328,2.140602111816406l-.003002166748047-.002395629882812Z" style="fill:#000; stroke-width:0px;"/></svg>