<svg xmlns="http://www.w3.org/2000/svg" aria-hidden="true" class="icon-pinterest" viewBox="0 0 310 310"><path fill="currentColor" d="M155.1 1.8C70.6 1.8 2 70.3 2 154.9s40.3 120.3 97.3 142.6c-1.4-12.1-2.5-30.7.5-44 2.8-12 17.9-76.1 17.9-76.1s-4.5-9.2-4.5-22.7c0-21.3 12.3-37.2 27.7-37.2s19.4 9.8 19.4 21.5-8.3 32.8-12.7 51c-3.7 15.2 7.7 27.7 22.7 27.7 27.2 0 48.1-28.7 48.1-70s-26.3-62.2-64-62.2-69.2 32.6-69.2 66.4 5 27.2 11.3 34.9c1.3 1.5 1.4 2.9 1 4.4-1.1 4.8-3.8 15.2-4.3 17.4-.6 2.8-2.3 3.4-5.2 2-19.2-8.9-31.1-36.8-31.1-59.3 0-48.3 35-92.6 101.2-92.6s94.4 37.8 94.4 88.4-33.3 95.2-79.4 95.2-30.1-8.1-35-17.6c0 0-7.7 29.2-9.6 36.4-3.4 13.4-12.7 30-19 40.2 14.4 4.4 29.5 6.8 45.4 6.8 84.5 0 153.1-68.5 153.1-153.1.2-84.7-68.3-153.2-152.9-153.2"/></svg>