<svg xmlns="http://www.w3.org/2000/svg" id="Layer_1" viewBox="0 0 310 310"><path d="M154.923 154.724a76.3 76.3 0 0 0 53.914-22.326c29.465-30.084 28.963-78.358-1.12-107.823-29.644-29.034-77.063-29.033-106.705.002-29.768 29.784-29.756 78.06.028 107.829a76.25 76.25 0 0 0 53.89 22.318m0-130.691a54.4 54.4 0 0 1 38.5 15.955 54.4 54.4 0 0 1 15.954 38.5 54.4 54.4 0 0 1-15.955 38.499 54.4 54.4 0 0 1-38.5 15.955 54.4 54.4 0 0 1-38.5-15.955 54.4 54.4 0 0 1-15.954-38.5 54.4 54.4 0 0 1 15.955-38.5 54.37 54.37 0 0 1 38.493-15.954M282.344 267.66a125.5 125.5 0 0 0-6.423-19.276c-19.387-44.33-65.78-71.88-121.002-71.88-62.731 0-113.805 36.158-127.094 90.069a32.66 32.66 0 0 0 5.935 28.044A32.66 32.66 0 0 0 59.515 307.2h190.808a32.66 32.66 0 0 0 25.922-12.529 31.96 31.96 0 0 0 6.1-27.009m-23.198 13.505a10.9 10.9 0 0 1-8.82 4.248H59.518a10.87 10.87 0 0 1-8.852-4.084 10.87 10.87 0 0 1-2.038-9.529c11.326-44.65 52.931-73.514 106.295-73.514 46.393 0 85.168 22.542 101.067 58.81a101 101 0 0 1 5.12 15.572c.731 2.983 0 6.14-1.963 8.497"/></svg>