<?xml version="1.0" encoding="UTF-8"?><svg id="Layer_1" xmlns="http://www.w3.org/2000/svg" viewBox="0 0 110 135.000000000000909"><path d="M54.978334697660102,67.500044220197196c5.800800323486328,0,11.367000579833984-2.304698944091797,15.469001770019531-6.406200408935547,4.101997375488281-4.10150146484375,6.406196594238281-9.667999267578125,6.406196594238281-15.468999862670898s-2.304702758789062-11.366998672485352-6.406196594238281-15.468999862670898-9.667999267578125-6.406199932098389-15.469001770019531-6.406199932098389-11.367000579833984,2.304700374603271-15.469001770019531,6.406199932098389-6.406200408935547,9.667999267578125-6.406200408935547,15.468999862670898,2.304698944091797,11.366998672485352,6.406200408935547,15.468999862670898,9.667999267578125,6.406200408935547,15.469001770019531,6.406200408935547ZM54.978334697660102,30.000044220197196c4.144500732421875,0,8.117198944091797,1.644499778747559,11.047000885009766,4.578100204467773,2.933601379394531,2.92970085144043,4.578098297119141,6.902299880981445,4.578098297119141,11.046998977661133s-1.644500732421875,8.117198944091797-4.578102111816406,11.047000885009766c-2.929698944091797,2.933601379394531-6.902297973632812,4.578098297119141-11.047000885009766,4.578098297119141s-8.117198944091797-1.644500732421875-11.047000885009766-4.578102111816406c-2.933601379394531-2.929698944091797-4.578102111816406-6.902297973632812-4.578102111816406-11.047000885009766s1.644500732421875-8.117198944091797,4.578102111816406-11.047000885009766c2.929698944091797-2.933599472045898,6.902297973632812-4.578100204467773,11.047004699707031-4.578094482421875ZM91.54033115762104,99.906042450179484c-.46484375-1.890602111816406-1.082000732421875-3.742202758789062-1.843803405761719-5.531196594238281-5.5625-12.719001770019531-18.875-20.625-34.719001770019531-20.625-18,0-32.655998229980469,10.375-36.469001770019531,25.844001770019531-.703120231628418,2.800796508789062-.07421875,5.769500732421875,1.703100204467773,8.046897888183594,1.773399353027344,2.277297973632812,4.503900527954102,3.609397888183594,7.390600204467773,3.609397888183594h54.749996185302734c2.902297973632812.01953125,5.648399353027344-1.308601379394531,7.4375-3.593803405761719,1.730499267578125-2.183601379394531,2.375-5.035202026367188,1.75-7.75l.0006103515625-.000297546386719ZM84.884134563382759,103.781042450179484c-.6015625.78515625-1.542999267578125,1.234397888183594-2.531196594238281,1.218803405761719H27.602937969144477c-.984380722045898.03125-1.925800323486328-.40234375-2.539100646972656-1.171897888183594-.617189407348633-.76953125-.832029342651367-1.781196594238281-.585939407348633-2.734397888183594,3.25-12.811996459960938,15.187997817993164-21.094001770019531,30.500001907348633-21.094001770019531,13.312000274658203,0,24.437995910644531,6.468803405761719,29,16.875.609382629394531,1.445297241210938,1.101600646972656,2.941398620605469,1.468803405761719,4.468803405761719.2109375.85546875,0,1.761703491210938-.5625,2.4375l-.000068664550781.000190734863281Z" style="fill:#000; stroke-width:0px;"/></svg>