<svg xmlns="http://www.w3.org/2000/svg" id="Layer_1" viewBox="0 0 310 310"><path d="M247.78 73.878h-28.839v-7.153c0-35.245-28.676-63.925-63.925-63.925S91.091 31.477 91.091 66.725v7.153H62.25c-17.072 0-30.96 13.887-30.96 30.975V216.97c0 49.755 40.486 90.231 90.229 90.231h66.967c49.756 0 90.225-40.489 90.225-90.231V104.853c0-17.075-13.887-30.975-30.96-30.975zm-136.383-7.153c0-24.06 19.573-43.632 43.632-43.632 24.06 0 43.632 19.57 43.632 43.632v7.153h-87.244v-7.153zM258.45 216.959c0 38.57-31.38 69.935-69.938 69.935h-66.967c-38.57 0-69.935-31.378-69.935-69.938V104.84c0-5.893 4.773-10.673 10.666-10.682h28.842v36.898c0 5.604 4.543 10.146 10.147 10.146s10.146-4.542 10.146-10.146V94.16h87.248v36.895c0 5.604 4.543 10.146 10.146 10.146s10.147-4.542 10.147-10.146V94.16h28.842c5.892.01 10.664 4.787 10.666 10.68v112.115z"/></svg>