<svg xmlns="http://www.w3.org/2000/svg" width="13" height="14" fill="none"><path fill="#29333A" d="M6.5 0c.8 0 1.44.32 1.87.85a3.07 3.07 0 0 1 .6 1.65h3.53a.5.5 0 0 1 0 1h-1.25v10a.5.5 0 0 1-.5.5h-8.5c-.28 0-.5-.22-.5-.5v-10H.5a.5.5 0 0 1 0-1h3.53a3.06 3.06 0 0 1 .6-1.65C5.06.32 5.7 0 6.5 0M2.75 3.5V13h7.5V3.5zm2.3 1.25a.5.5 0 0 1 .5.5v6a.5.5 0 0 1-1 0v-6a.5.5 0 0 1 .5-.5m2.9 0a.5.5 0 0 1 .5.5v6a.5.5 0 0 1-1 0v-6a.5.5 0 0 1 .5-.5M6.5 1c-.51 0-.86.19-1.09.48-.19.24-.31.6-.36 1.02h2.9c-.06-.42-.16-.78-.36-1.02C7.35 1.19 7.01 1 6.5 1"/></svg>