<svg xmlns="http://www.w3.org/2000/svg" class="icon-tiktok" viewBox="0 0 310 310"><path fill="currentColor" d="M253.8 68.1c-2-1.1-4-2.2-6-3.5-5.6-3.7-10.8-8.1-15.3-13-11.4-13.1-15.7-26.4-17.3-35.7-1.3-7.7-.8-12.7-.7-12.7h-52.1v201.6c0 2.7 0 5.4-.1 8v1.4c-1.1 14.8-9.5 28-22.3 35.3-6.6 3.7-14 5.7-21.6 5.7-24.3 0-44-19.8-44-44.3s19.7-44.3 44-44.3c4.6 0 9.2.7 13.5 2.1v-53.1c-26.8-3.5-53.8 4.5-74.6 21.8-9 7.8-16.5 17.1-22.3 27.5-2.2 3.8-10.5 19-11.5 43.8-.6 14 3.6 28.6 5.6 34.6 1.3 3.7 6.2 15.8 14.2 25.9 6.4 8.2 14.1 15.4 22.6 21.3 0-.1.1 0 .1 0 25.2 17.2 53.2 16 53.2 16 4.8-.2 21.1 0 39.5-8.7 20.4-9.7 32.1-24.1 32.1-24.1 7.4-8.6 13.3-18.4 17.5-29 4.7-12.4 6.3-27.3 6.3-33.2v-107c.6.4 9.1 6 9.1 6s12.1 7.8 31.1 12.8c13.6 3.6 31.9 4.4 31.9 4.4V75.9c-6.4.7-19.4-1.3-32.8-8Z"/></svg>