<svg xmlns="http://www.w3.org/2000/svg" viewBox="0 0 110 105.781"><path d="M54.55 92.882c-16.649 0-32.23-10.488-37.888-27.102l-1.171-3.441 6.882-2.348 1.172 3.441c2.817 8.278 8.688 14.957 16.527 18.812 7.848 3.86 16.715 4.434 24.988 1.614 17.074-5.813 26.238-24.441 20.426-41.516-5.816-17.078-24.44-26.234-41.516-20.426l-3.441 1.172-2.344-6.883 3.441-1.172c20.875-7.106 43.641 4.098 50.746 24.965 7.106 20.871-4.09 43.641-24.965 50.746a40 40 0 0 1-12.855 2.14z" style="fill:#000;stroke-width:0"/></svg>